<?xml version="1.0" encoding="UTF-8"?><svg id="Layer_2" xmlns="http://www.w3.org/2000/svg" viewBox="0 0 54.27 69.08"><defs><style>.cls-1{fill:#4687c7;}.cls-2{fill:#2b2e80;}</style></defs><g id="Layer_1-2"><path class="cls-2" d="M54.22,69.08h-8.5V36.41c-.15,.03-.25,.02-.28,.05-1.61,1.81-3.37,3.56-4.79,5.45-1.53,2.04-2.08,4.33-2.09,6.66-.02,6.6,0,13.21,0,19.81,0,.21,0,.43,0,.68h-8.55c0-.19,0-.4,0-.6,0-22.34,0-44.67,0-67.01q0-1.44,1.92-1.44c1.78,0,3.55,0,5.33,0,1.17,0,1.31,.1,1.31,.94,0,4.87,0,9.74,0,14.61,0,5.32,0,10.65,0,15.97,0,.21,0,.41,0,.62,.14,0,.22,.02,.24,0,2.07-1.96,4.14-3.93,5.41-6.26,.97-1.77,1.4-3.63,1.41-5.53,.02-6.31,.02-12.62,.02-18.92,0-.26,0-.51,.02-.77,.03-.42,.34-.66,.92-.67,2.26,0,4.52,0,6.78,0,.6,0,.87,.25,.89,.67,0,.24,.02,.47,.02,.71,0,10.05-.02,20.11-.03,30.16,0,12.2,0,24.4-.01,36.61,0,.29,0,.58,0,.93Z"/><path class="cls-1" d="M.12,.11H8.58c0,1.14,0,2.2,0,3.26,0,5.2,.06,10.41-.05,15.61-.09,4.19,1.44,7.96,4.92,11.29,.7,.67,1.34,1.38,2.01,2.06,.01,.01,.04,.02,.16,.07V.03c2.57,0,5.03-.02,7.5,.01,.71,0,1.11,.33,1.09,.9-.01,.51,.05,1.02,.05,1.54,0,21.72-.02,43.44-.03,65.16,0,.47,0,.94,0,1.43H15.81c-.02-.22-.04-.41-.04-.6-.04-5.85-.1-11.71-.09-17.56,0-1.83,.1-3.66-.43-5.47-.66-2.22-1.93-4.24-3.68-6.11-2.47-2.62-4.89-5.27-7.34-7.9C1.44,28.43,.12,25.1,.1,21.48,.05,14.66,.03,7.84,0,1.03,0,.71,.08,.4,.12,.11Z"/></g></svg>